# xmcd
#
# Track frame offsets:
#	150
#	20302
#	38399
#	66818
#	87434
#	103853
#	124740
#	151430
#	158587
#	172407
#	197243
#	222193
#	242936
#	250086
#	275393
#
# Disc length: 3825 seconds
#
# Revision: 1
# Processed by: cddbd v1.5.2PL0 Copyright (c) Steve Scherf et al.
# Submitted via: audiograbber 1.83.01
#
DISCID=ce0eef0f
DTITLE=Mick Pluto - Mick Pluto Box - Waves III
DYEAR=2012
DGENRE=Electronic
TTITLE0=Fang den Hut
TTITLE1=Wirbelnde Blätter im Innenhof
TTITLE2=Im Club Four mit Thomas E
TTITLE3=Polychrome
TTITLE4=Bravissimo Extra Men
TTITLE5=Curiosity on Mars
TTITLE6=Reggaemon in the Air
TTITLE7=Intermezzo
TTITLE8=Delta 100
TTITLE9=Funky Schlomo
TTITLE10=Apples vom Mars
TTITLE11=Molecule No 7
TTITLE12=Tortoise
TTITLE13=Arbeitstitel Relax 1
TTITLE14=Intermezzo 2
EXTD=
EXTT0=
EXTT1=
EXTT2=
EXTT3=
EXTT4=
EXTT5=
EXTT6=
EXTT7=
EXTT8=
EXTT9=
EXTT10=
EXTT11=
EXTT12=
EXTT13=
EXTT14=
PLAYORDER=
